<mxfile host="app.diagrams.net" modified="2024-05-02T11:49:39.652Z" agent="Mozilla/5.0 (Windows NT 10.0; Win64; x64) AppleWebKit/537.36 (KHTML, like Gecko) Chrome/124.0.0.0 Safari/537.36" etag="rdmPGosflDtY7gsnxQsS" version="24.2.2" type="onedrive">
  <diagram name="Página-1" id="Z0CGFZAMpiUYPMBgOjVz">
    <mxGraphModel dx="717" dy="1734" grid="1" gridSize="10" guides="1" tooltips="1" connect="1" arrows="1" fold="1" page="1" pageScale="1" pageWidth="827" pageHeight="1169" math="0" shadow="0">
      <root>
        <mxCell id="0" />
        <mxCell id="1" parent="0" />
        <mxCell id="mdOxcdZTJXT16RFrBUA4-4" value="" style="edgeStyle=orthogonalEdgeStyle;rounded=0;orthogonalLoop=1;jettySize=auto;html=1;" edge="1" parent="1" source="mdOxcdZTJXT16RFrBUA4-1" target="mdOxcdZTJXT16RFrBUA4-3">
          <mxGeometry relative="1" as="geometry" />
        </mxCell>
        <mxCell id="mdOxcdZTJXT16RFrBUA4-1" value="inicio" style="strokeWidth=2;html=1;shape=mxgraph.flowchart.terminator;whiteSpace=wrap;" vertex="1" parent="1">
          <mxGeometry x="335.5" y="-1120" width="100" height="60" as="geometry" />
        </mxCell>
        <mxCell id="mdOxcdZTJXT16RFrBUA4-2" value="fim" style="strokeWidth=2;html=1;shape=mxgraph.flowchart.terminator;whiteSpace=wrap;" vertex="1" parent="1">
          <mxGeometry x="334" y="-200" width="100" height="60" as="geometry" />
        </mxCell>
        <mxCell id="mdOxcdZTJXT16RFrBUA4-8" value="" style="edgeStyle=orthogonalEdgeStyle;rounded=0;orthogonalLoop=1;jettySize=auto;html=1;" edge="1" parent="1" source="mdOxcdZTJXT16RFrBUA4-3" target="mdOxcdZTJXT16RFrBUA4-7">
          <mxGeometry relative="1" as="geometry" />
        </mxCell>
        <mxCell id="mdOxcdZTJXT16RFrBUA4-3" value="Digite o primeiro valor" style="shape=display;whiteSpace=wrap;html=1;" vertex="1" parent="1">
          <mxGeometry x="302.5" y="-990" width="166" height="60" as="geometry" />
        </mxCell>
        <mxCell id="mdOxcdZTJXT16RFrBUA4-10" value="" style="edgeStyle=orthogonalEdgeStyle;rounded=0;orthogonalLoop=1;jettySize=auto;html=1;" edge="1" parent="1" source="mdOxcdZTJXT16RFrBUA4-7" target="mdOxcdZTJXT16RFrBUA4-9">
          <mxGeometry relative="1" as="geometry" />
        </mxCell>
        <mxCell id="mdOxcdZTJXT16RFrBUA4-7" value="valor 1" style="html=1;strokeWidth=2;shape=manualInput;whiteSpace=wrap;rounded=1;size=26;arcSize=11;" vertex="1" parent="1">
          <mxGeometry x="324" y="-880" width="123" height="70" as="geometry" />
        </mxCell>
        <mxCell id="mdOxcdZTJXT16RFrBUA4-9" value="Digite o segundo valor" style="shape=display;whiteSpace=wrap;html=1;" vertex="1" parent="1">
          <mxGeometry x="302.5" y="-750" width="166" height="60" as="geometry" />
        </mxCell>
        <mxCell id="mdOxcdZTJXT16RFrBUA4-16" value="" style="edgeStyle=orthogonalEdgeStyle;rounded=0;orthogonalLoop=1;jettySize=auto;html=1;" edge="1" parent="1" source="mdOxcdZTJXT16RFrBUA4-11" target="mdOxcdZTJXT16RFrBUA4-13">
          <mxGeometry relative="1" as="geometry" />
        </mxCell>
        <mxCell id="mdOxcdZTJXT16RFrBUA4-11" value="valor1 &amp;gt; valor2" style="strokeWidth=2;html=1;shape=mxgraph.flowchart.decision;whiteSpace=wrap;" vertex="1" parent="1">
          <mxGeometry x="319.5" y="-639" width="132" height="110" as="geometry" />
        </mxCell>
        <mxCell id="mdOxcdZTJXT16RFrBUA4-12" style="edgeStyle=orthogonalEdgeStyle;rounded=0;orthogonalLoop=1;jettySize=auto;html=1;entryX=0.5;entryY=0;entryDx=0;entryDy=0;entryPerimeter=0;" edge="1" parent="1" source="mdOxcdZTJXT16RFrBUA4-9" target="mdOxcdZTJXT16RFrBUA4-11">
          <mxGeometry relative="1" as="geometry" />
        </mxCell>
        <mxCell id="mdOxcdZTJXT16RFrBUA4-21" style="edgeStyle=orthogonalEdgeStyle;rounded=0;orthogonalLoop=1;jettySize=auto;html=1;" edge="1" parent="1" source="mdOxcdZTJXT16RFrBUA4-13" target="mdOxcdZTJXT16RFrBUA4-20">
          <mxGeometry relative="1" as="geometry" />
        </mxCell>
        <mxCell id="mdOxcdZTJXT16RFrBUA4-13" value="O valor1 é maior que o valor2" style="shape=display;whiteSpace=wrap;html=1;" vertex="1" parent="1">
          <mxGeometry x="295.5" y="-460" width="180" height="70" as="geometry" />
        </mxCell>
        <mxCell id="mdOxcdZTJXT16RFrBUA4-14" value="O valor2 é maior que o valor1" style="shape=display;whiteSpace=wrap;html=1;" vertex="1" parent="1">
          <mxGeometry x="490" y="-490" width="190" height="70" as="geometry" />
        </mxCell>
        <mxCell id="mdOxcdZTJXT16RFrBUA4-15" style="edgeStyle=orthogonalEdgeStyle;rounded=0;orthogonalLoop=1;jettySize=auto;html=1;entryX=0.637;entryY=0;entryDx=0;entryDy=0;entryPerimeter=0;" edge="1" parent="1" source="mdOxcdZTJXT16RFrBUA4-11" target="mdOxcdZTJXT16RFrBUA4-14">
          <mxGeometry relative="1" as="geometry" />
        </mxCell>
        <mxCell id="mdOxcdZTJXT16RFrBUA4-18" value="verdadeiro" style="text;html=1;align=center;verticalAlign=middle;resizable=0;points=[];autosize=1;strokeColor=none;fillColor=none;" vertex="1" parent="1">
          <mxGeometry x="280" y="-500" width="80" height="30" as="geometry" />
        </mxCell>
        <mxCell id="mdOxcdZTJXT16RFrBUA4-19" value="falso&lt;div&gt;&lt;br&gt;&lt;/div&gt;" style="text;html=1;align=center;verticalAlign=middle;resizable=0;points=[];autosize=1;strokeColor=none;fillColor=none;" vertex="1" parent="1">
          <mxGeometry x="490" y="-624" width="50" height="40" as="geometry" />
        </mxCell>
        <mxCell id="mdOxcdZTJXT16RFrBUA4-28" value="" style="edgeStyle=orthogonalEdgeStyle;rounded=0;orthogonalLoop=1;jettySize=auto;html=1;" edge="1" parent="1" source="mdOxcdZTJXT16RFrBUA4-20" target="mdOxcdZTJXT16RFrBUA4-2">
          <mxGeometry relative="1" as="geometry" />
        </mxCell>
        <mxCell id="mdOxcdZTJXT16RFrBUA4-20" value="" style="verticalLabelPosition=bottom;verticalAlign=top;html=1;shape=mxgraph.flowchart.on-page_reference;" vertex="1" parent="1">
          <mxGeometry x="354" y="-330" width="60" height="60" as="geometry" />
        </mxCell>
        <mxCell id="mdOxcdZTJXT16RFrBUA4-27" style="edgeStyle=orthogonalEdgeStyle;rounded=0;orthogonalLoop=1;jettySize=auto;html=1;exitX=0;exitY=0;exitDx=101.25;exitDy=70;exitPerimeter=0;entryX=1;entryY=0.5;entryDx=0;entryDy=0;entryPerimeter=0;" edge="1" parent="1" source="mdOxcdZTJXT16RFrBUA4-14" target="mdOxcdZTJXT16RFrBUA4-20">
          <mxGeometry relative="1" as="geometry" />
        </mxCell>
      </root>
    </mxGraphModel>
  </diagram>
</mxfile>
